Coordinates
version=1
nRows=18
nColumns=22
inDegrees=yes

Units are S.I. units (second, meters, Newtons, ...)
If the header above contains a line with 'inDegrees', this indicates whether rotational values are in degrees (yes) or radians (no).

endheader
time	pelvis_tilt	pelvis_list	pelvis_rotation	pelvis_tx	pelvis_ty	pelvis_tz	hip_flexion_r	hip_adduction_r	hip_rotation_r	knee_angle_r	ankle_angle_r	subtalar_angle_r	hip_flexion_l	hip_adduction_l	hip_rotation_l	knee_angle_l	ankle_angle_l	subtalar_angle_l	lumbar_extension	lumbar_bending	lumbar_rotation
      0.01000000	      4.15478505	      7.85712219	    182.12698008	      0.30596339	      0.97337743	      1.11980652	      6.19553956	      9.00728573	     -1.07384975	    -14.94043037	      9.37067664	     -1.41612898	      3.64091817	     -7.30478865	     -1.87358823	     -9.90079958	     12.81955755	     -1.91504907	      2.77776077	      4.54136398	    -11.25513168
      0.02000000	      4.25070412	      7.95636738	    182.13128938	      0.30642549	      0.97316632	      1.11941584	      6.34394801	      9.13488099	     -1.08448720	    -14.95643156	      9.32768296	     -1.43781601	      3.85469506	     -7.43526215	     -1.81728199	    -10.03267214	     12.90096381	     -1.93519722	      2.85552634	      4.61186343	    -11.36808350
      0.03000000	      4.38079182	      8.05617364	    182.13123166	      0.30696633	      0.97290122	      1.11898001	      6.54143177	      9.26462514	     -1.09162098	    -14.98694545	      9.30551391	     -1.47199876	      4.12277167	     -7.56745040	     -1.75483972	    -10.18775246	     12.97765738	     -1.95990362	      2.96639815	      4.67910063	    -11.49802041
      0.04000000	      4.52363128	      8.13382487	    182.12153903	      0.30749610	      0.97262487	      1.11853603	      6.75419601	      9.37039571	     -1.09619771	    -15.02627244	      9.30592793	     -1.52156070	      4.39619115	     -7.67506527	     -1.70155047	    -10.33369715	     13.02225228	     -1.98100838	      3.09484333	      4.72194026	    -11.63322813
      0.05000000	      4.61661748	      8.21604677	    182.08353843	      0.30791397	      0.97242977	      1.11808685	      6.88911108	      9.48595267	     -1.05974401	    -15.03669636	      9.26993732	     -1.54673280	      4.58040058	     -7.79026514	     -1.69352521	    -10.44078706	     13.09432249	     -2.00243334	      3.17601963	      4.78029880	    -11.73562893
      0.06000000	      4.69060445	      8.26804244	    182.03414892	      0.30819671	      0.97228005	      1.11767953	      6.97335463	      9.56851678	     -1.00168443	    -15.01617712	      9.28577930	     -1.57223963	      4.71208812	     -7.87107291	     -1.71318150	    -10.51337719	     13.12174920	     -2.01516112	      3.25122697	      4.81267613	    -11.83269619
      0.07000000	      4.75381189	      8.30053930	    181.96998863	      0.30840091	      0.97216670	      1.11730804	      7.05217573	      9.62718520	     -0.95271526	    -15.01705228	      9.25870168	     -1.59437350	      4.80637947	     -7.92822968	     -1.75425142	    -10.55709330	     13.15402752	     -2.02630348	      3.32106074	      4.83121205	    -11.91603811
      0.08000000	      4.79302877	      8.31730577	    181.90373001	      0.30852512	      0.97209936	      1.11698175	      7.09249991	      9.66704764	     -0.89770059	    -15.00697198	      9.25156533	     -1.61502416	      4.85832039	     -7.96617232	     -1.79718201	    -10.58464263	     13.17111482	     -2.03242804	      3.37123471	      4.83917399	    -11.98687085
      0.09000000	      4.81792966	      8.32716562	    181.83660432	      0.30860212	      0.97206377	      1.11668872	      7.11186728	      9.69762942	     -0.84440965	    -14.99314558	      9.23886403	     -1.63146552	      4.88619501	     -7.99480698	     -1.84678985	    -10.60271478	     13.18462704	     -2.03658319	      3.40805329	      4.84527723	    -12.04831977
      0.10000000	      4.83228664	      8.33249015	    181.77401027	      0.30864773	      0.97204870	      1.11642063	      7.11570512	      9.72197521	     -0.79218189	    -14.97475521	      9.23121684	     -1.64459251	      4.90089774	     -8.01747466	     -1.89534159	    -10.62057721	     13.19490428	     -2.03952333	      3.43618784	      4.84933316	    -12.10626483
      0.11000000	      4.83948748	      8.33633996	    181.71780990	      0.30868361	      0.97204493	      1.11617644	      7.11260202	      9.74327794	     -0.74283606	    -14.96004926	      9.22373344	     -1.65588965	      4.91207027	     -8.03678745	     -1.93954080	    -10.64337381	     13.20617836	     -2.04218590	      3.45613190	      4.85383700	    -12.15677260
      0.12000000	      4.83684526	      8.33208002	    181.67321693	      0.30873051	      0.97205258	      1.11596651	      7.11084459	      9.75163067	     -0.71749170	    -14.96278187	      9.22168223	     -1.65874451	      4.91155608	     -8.04451225	     -1.95782576	    -10.65921847	     13.21151990	     -2.04409678	      3.46175375	      4.85318841	    -12.21332129
      0.13000000	      4.83783055	      8.33553013	    181.62963421	      0.30878793	      0.97205290	      1.11574145	      7.10457440	      9.77164679	     -0.66937606	    -14.94870842	      9.22330795	     -1.66711456	      4.93826274	     -8.06290601	     -1.99700069	    -10.71380527	     13.23252389	     -2.05110587	      3.46954911	      4.85773699	    -12.25086749
      0.14000000	      4.82873838	      8.33021431	    181.59433507	      0.30886013	      0.97206211	      1.11554395	      7.10974154	      9.77872529	     -0.64376434	    -14.97143698	      9.22243607	     -1.67010493	      4.94653675	     -8.06866990	     -2.00195242	    -10.74983708	     13.24112961	     -2.05435978	      3.46268975	      4.85543068	    -12.29110171
      0.15000000	      4.81827442	      8.32203109	    181.56228363	      0.30895048	      0.97206258	      1.11535416	      7.11916467	      9.78263005	     -0.61620032	    -15.00185347	      9.23172104	     -1.67522554	      4.97110414	     -8.07170022	     -2.00768437	    -10.81397810	     13.25999145	     -2.06127275	      3.44959252	      4.85079054	    -12.32051174
      0.16000000	      4.83128295	      8.30694258	    181.52416012	      0.30906839	      0.97201204	      1.11517847	      7.16954508	      9.77607088	     -0.60411893	    -15.05746730	      9.27109707	     -1.69023954	      5.04503710	     -8.06669007	     -2.03261552	    -10.92046429	     13.31461732	     -2.07983701	      3.45826252	      4.84171739	    -12.32732852
      0.17000000	      4.81615281	      8.29258499	    181.49582513	      0.30916979	      0.97200712	      1.11501339	      7.20084782	      9.77205641	     -0.57616052	    -15.13310658	      9.27335586	     -1.69454111	      5.06815476	     -8.06125116	     -2.00552195	    -10.98766645	     13.32144986	     -2.08396075	      3.43449910	      4.83312512	    -12.34242340
      0.18000000	      4.84400219	      8.24683309	    181.46252313	      0.30932035	      0.97191157	      1.11488405	      7.30883280	      9.72728898	     -0.59392017	    -15.26023246	      9.35581229	     -1.71447695	      5.18111148	     -8.01972452	     -2.01373144	    -11.13061133	     13.39031202	     -2.10794173	      3.45085417	      4.79325008	    -12.32769423
